# xmcd
#
# Track frame offsets:
#	183
#	27395
#	50543
#	94668
#	115640
#	135910
#
# Disc length: 2302 seconds
#
# Revision: 0
# Processed by: cddbd v1.5.2PL0 Copyright (c) Steve Scherf et al.
# Submitted via: EasyCDDAExtractor 16.0.9.1
#
DISCID=4208fc06
DTITLE=George Benson - N-026 George Benson In Flight
DYEAR=1987
DGENRE=
TTITLE0=Nature Boy
TTITLE1=The Wind and I
TTITLE2=The World Is a Ghetto
TTITLE3=Gonna Love You More
TTITLE4=Valdez in the Country
TTITLE5=Everything Must Change
EXTD=
EXTT0=
EXTT1=
EXTT2=
EXTT3=
EXTT4=
EXTT5=
PLAYORDER=
